<svg width="101" height="21" viewBox="0 0 101 21" fill="none" xmlns="http://www.w3.org/2000/svg">
<path d="M84.8514 14.9894V14.4746L84.1871 14.8599L84.6289 15.6304L85.2964 15.2451L84.8514 14.9894V14.9894Z" fill="#f7dd43"/>
<path d="M85.2964 15.2451L84.6289 15.6304L84.1871 14.8599L84.8514 14.4746V14.9894L85.2964 15.2451Z" fill="#f7dd43"/>
<path d="M100.591 5.64367L92.6099 1.03717C92.4737 0.957459 92.3043 0.957459 92.1648 1.03717L84.1873 5.64367C84.0478 5.72338 83.9648 5.86951 83.9648 6.02893V15.2453C83.9648 15.4047 84.0478 15.5508 84.1873 15.6305L92.1648 20.237C92.2346 20.2769 92.311 20.2968 92.3873 20.2968C92.4637 20.2968 92.5434 20.2769 92.6099 20.237L100.591 15.6305C100.73 15.5508 100.813 15.4047 100.813 15.2453V6.02893C100.813 5.86951 100.73 5.72338 100.591 5.64367ZM85.2966 15.2453L92.3873 11.1502L99.4781 15.2453L92.3873 19.3403L85.2966 15.2453L84.629 15.6305L84.1873 14.86L84.8515 14.4747V6.28798L92.3873 1.93721L99.4781 6.02893L84.8515 14.4747V14.9895L85.2966 15.2453V15.2453Z" fill="#373d98"/>
<path d="M4.53363 5.75427V14.2065H2.7979V5.75427H4.53363ZM7.13432 5.75427V7.11847H0.237851L0.237851 5.75427H7.13432ZM9.28802 9.29539V14.2065H7.61615V7.92538H9.18933L9.28802 9.29539ZM11.1805 7.88475L11.1515 9.43471C11.0702 9.4231 10.9715 9.41343 10.8554 9.40569C10.7432 9.39408 10.6406 9.38827 10.5477 9.38827C10.3117 9.38827 10.1065 9.41923 9.93239 9.48115C9.7621 9.5392 9.61891 9.62628 9.50281 9.74238C9.39057 9.85848 9.30543 9.99974 9.24738 10.1662C9.1932 10.3326 9.16224 10.5222 9.1545 10.7351L8.8178 10.6306C8.8178 10.2242 8.85844 9.85074 8.93971 9.51018C9.02098 9.16574 9.13902 8.86581 9.29382 8.61039C9.4525 8.35496 9.646 8.15759 9.87433 8.01827C10.1027 7.87894 10.3639 7.80928 10.658 7.80928C10.7509 7.80928 10.8457 7.81702 10.9425 7.8325C11.0392 7.84411 11.1186 7.86153 11.1805 7.88475ZM13.7347 7.92538V14.2065H12.0571V7.92538H13.7347ZM11.9526 6.28834C11.9526 6.04453 12.0377 5.84328 12.208 5.68461C12.3783 5.52594 12.6066 5.4466 12.893 5.4466C13.1755 5.4466 13.4019 5.52594 13.5722 5.68461C13.7463 5.84328 13.8334 6.04453 13.8334 6.28834C13.8334 6.53216 13.7463 6.7334 13.5722 6.89207C13.4019 7.05075 13.1755 7.13008 12.893 7.13008C12.6066 7.13008 12.3783 7.05075 12.208 6.89207C12.0377 6.7334 11.9526 6.53216 11.9526 6.28834ZM16.8811 5.28986V14.2065H15.2034V5.28986H16.8811ZM19.894 5.28986V14.2065H18.2221V5.28986H19.894ZM19.6559 10.8454H19.1973C19.2012 10.408 19.2593 10.0055 19.3715 9.63789C19.4837 9.26636 19.6443 8.94515 19.8533 8.67424C20.0623 8.39947 20.3119 8.18661 20.6022 8.03568C20.8963 7.88475 21.2214 7.80928 21.5774 7.80928C21.887 7.80928 22.1676 7.85379 22.4192 7.9428C22.6746 8.02794 22.8933 8.16726 23.0752 8.36077C23.2609 8.5504 23.4041 8.80002 23.5047 9.10963C23.6054 9.41923 23.6557 9.79463 23.6557 10.2358V14.2065H21.9722V10.2242C21.9722 9.94556 21.9315 9.7269 21.8503 9.56823C21.7729 9.40569 21.6587 9.29152 21.5078 9.22573C21.3607 9.15607 21.1788 9.12124 20.9621 9.12124C20.7222 9.12124 20.517 9.16574 20.3468 9.25475C20.1803 9.34377 20.0468 9.46761 19.9462 9.62628C19.8456 9.78108 19.772 9.96298 19.7256 10.172C19.6792 10.3809 19.6559 10.6054 19.6559 10.8454ZM28.3172 12.7901V9.992C28.3172 9.79076 28.2843 9.61854 28.2185 9.47535C28.1527 9.32828 28.0501 9.21412 27.9108 9.13285C27.7754 9.05157 27.5993 9.01094 27.3825 9.01094C27.1968 9.01094 27.0362 9.04383 26.9007 9.10963C26.7653 9.17155 26.6608 9.26249 26.5872 9.38247C26.5137 9.49857 26.4769 9.63596 26.4769 9.79463H24.8051C24.8051 9.52759 24.867 9.2741 24.9908 9.03416C25.1147 8.79421 25.2946 8.5833 25.5307 8.4014C25.7668 8.21564 26.0474 8.07051 26.3725 7.96602C26.7014 7.86153 27.0691 7.80928 27.4754 7.80928C27.9631 7.80928 28.3965 7.89055 28.7758 8.0531C29.155 8.21564 29.453 8.45945 29.6698 8.78454C29.8904 9.10963 30.0007 9.51598 30.0007 10.0036V12.6914C30.0007 13.0358 30.0219 13.3183 30.0645 13.5389C30.1071 13.7556 30.169 13.9453 30.2503 14.1078V14.2065H28.561C28.4797 14.0362 28.4178 13.8234 28.3752 13.568C28.3365 13.3087 28.3172 13.0494 28.3172 12.7901ZM28.5378 10.3809L28.5494 11.3272H27.6147C27.3942 11.3272 27.2026 11.3523 27.04 11.4026C26.8775 11.453 26.744 11.5246 26.6395 11.6174C26.535 11.7064 26.4576 11.8109 26.4073 11.9309C26.3608 12.0509 26.3376 12.1825 26.3376 12.3257C26.3376 12.4688 26.3705 12.5985 26.4363 12.7146C26.5021 12.8268 26.5969 12.9158 26.7208 12.9816C26.8446 13.0436 26.9897 13.0745 27.1561 13.0745C27.4077 13.0745 27.6264 13.0242 27.8121 12.9236C27.9979 12.823 28.1411 12.6991 28.2417 12.5521C28.3462 12.405 28.4004 12.2657 28.4042 12.1341L28.8454 12.8423C28.7835 13.001 28.6984 13.1655 28.59 13.3357C28.4855 13.506 28.352 13.6666 28.1895 13.8176C28.0269 13.9646 27.8315 14.0865 27.6031 14.1833C27.3748 14.2762 27.1039 14.3226 26.7904 14.3226C26.3918 14.3226 26.03 14.2433 25.7049 14.0846C25.3837 13.9221 25.1282 13.6995 24.9386 13.417C24.7528 13.1306 24.6599 12.8055 24.6599 12.4418C24.6599 12.1128 24.7219 11.8206 24.8457 11.5652C24.9696 11.3098 25.1514 11.095 25.3914 10.9208C25.6352 10.7428 25.939 10.6093 26.3028 10.5203C26.6666 10.4274 27.0884 10.3809 27.5683 10.3809H28.5378ZM40.0261 12.8481V14.2065H35.5271V12.8481H40.0261ZM36.096 5.75427V14.2065H34.3545V5.75427H36.096ZM39.4398 9.1967V10.5203H35.5271V9.1967H39.4398ZM40.0203 5.75427V7.11847H35.5271V5.75427H40.0203ZM42.2843 7.92538L43.3234 9.83526L44.3915 7.92538H46.1737L44.3973 10.9963L46.255 14.2065H44.467L43.335 12.1863L42.203 14.2065H40.415L42.2727 10.9963L40.4963 7.92538H42.2843ZM48.6583 9.13285V16.6214H46.9864V7.92538H48.5364L48.6583 9.13285ZM52.6348 10.9963V11.1182C52.6348 11.5749 52.5806 11.9986 52.4722 12.3895C52.3677 12.7804 52.2129 13.121 52.0078 13.4112C51.8027 13.6976 51.5473 13.9221 51.2415 14.0846C50.9397 14.2433 50.5914 14.3226 50.1966 14.3226C49.8135 14.3226 49.4807 14.2452 49.1981 14.0904C48.9156 13.9356 48.6776 13.7189 48.4841 13.4402C48.2945 13.1577 48.1416 12.8307 48.0255 12.4592C47.9094 12.0876 47.8204 11.689 47.7585 11.2633V10.944C47.8204 10.4874 47.9094 10.0694 48.0255 9.69014C48.1416 9.307 48.2945 8.97611 48.4841 8.69746C48.6776 8.41495 48.9137 8.19629 49.1923 8.04149C49.4749 7.88668 49.8058 7.80928 50.185 7.80928C50.5836 7.80928 50.9339 7.88475 51.2357 8.03568C51.5415 8.18661 51.7969 8.40334 52.002 8.68585C52.211 8.96837 52.3677 9.30506 52.4722 9.69594C52.5806 10.0868 52.6348 10.5203 52.6348 10.9963ZM50.9571 11.1182V10.9963C50.9571 10.7293 50.9339 10.4835 50.8874 10.259C50.8449 10.0307 50.7752 9.83139 50.6785 9.66111C50.5856 9.49083 50.4617 9.35925 50.3069 9.26636C50.156 9.16961 49.9722 9.12124 49.7554 9.12124C49.5271 9.12124 49.3317 9.158 49.1691 9.23153C49.0105 9.30506 48.8808 9.41149 48.7802 9.55081C48.6796 9.69014 48.6041 9.85655 48.5538 10.0501C48.5035 10.2436 48.4725 10.4622 48.4609 10.706V11.5129C48.4802 11.7993 48.5344 12.0567 48.6234 12.285C48.7125 12.5095 48.8498 12.6875 49.0356 12.8191C49.2214 12.9507 49.4652 13.0165 49.767 13.0165C49.9876 13.0165 50.1734 12.9681 50.3243 12.8713C50.4753 12.7707 50.5972 12.6333 50.6901 12.4592C50.7868 12.285 50.8545 12.0838 50.8932 11.8554C50.9358 11.6271 50.9571 11.3814 50.9571 11.1182ZM55.4386 5.28986V14.2065H53.761V5.28986H55.4386ZM56.5532 11.1298V11.0079C56.5532 10.5474 56.619 10.1236 56.7506 9.73658C56.8822 9.3457 57.0737 9.00707 57.3253 8.72068C57.5769 8.4343 57.8865 8.21177 58.2541 8.0531C58.6218 7.89055 59.0436 7.80928 59.5196 7.80928C59.9957 7.80928 60.4194 7.89055 60.791 8.0531C61.1625 8.21177 61.474 8.4343 61.7256 8.72068C61.981 9.00707 62.1745 9.3457 62.3061 9.73658C62.4377 10.1236 62.5035 10.5474 62.5035 11.0079V11.1298C62.5035 11.5865 62.4377 12.0102 62.3061 12.4011C62.1745 12.7881 61.981 13.1268 61.7256 13.417C61.474 13.7034 61.1644 13.9259 60.7968 14.0846C60.4291 14.2433 60.0073 14.3226 59.5312 14.3226C59.0552 14.3226 58.6315 14.2433 58.2599 14.0846C57.8923 13.9259 57.5807 13.7034 57.3253 13.417C57.0737 13.1268 56.8822 12.7881 56.7506 12.4011C56.619 12.0102 56.5532 11.5865 56.5532 11.1298ZM58.2251 11.0079V11.1298C58.2251 11.393 58.2483 11.6387 58.2948 11.8671C58.3412 12.0954 58.4147 12.2966 58.5154 12.4708C58.6198 12.6411 58.7553 12.7746 58.9217 12.8713C59.0881 12.9681 59.2913 13.0165 59.5312 13.0165C59.7635 13.0165 59.9628 12.9681 60.1292 12.8713C60.2956 12.7746 60.4291 12.6411 60.5297 12.4708C60.6303 12.2966 60.7039 12.0954 60.7503 11.8671C60.8006 11.6387 60.8258 11.393 60.8258 11.1298V11.0079C60.8258 10.7525 60.8006 10.5125 60.7503 10.2881C60.7039 10.0597 60.6284 9.85848 60.5239 9.68433C60.4233 9.50631 60.2898 9.36699 60.1234 9.26636C59.957 9.16574 59.7557 9.11543 59.5196 9.11543C59.2836 9.11543 59.0823 9.16574 58.9159 9.26636C58.7534 9.36699 58.6198 9.50631 58.5154 9.68433C58.4147 9.85848 58.3412 10.0597 58.2948 10.2881C58.2483 10.5125 58.2251 10.7525 58.2251 11.0079ZM65.2028 9.29539V14.2065L63.531 14.2065V7.92538H65.1041L65.2028 9.29539ZM67.0953 7.88475L67.0663 9.43471C66.985 9.4231 66.8863 9.41343 66.7702 9.40569C66.658 9.39408 66.5554 9.38827 66.4625 9.38827C66.2265 9.38827 66.0214 9.41923 65.8472 9.48115C65.6769 9.5392 65.5337 9.62628 65.4176 9.74238C65.3054 9.85848 65.2203 9.99974 65.1622 10.1662C65.108 10.3326 65.0771 10.5222 65.0693 10.7351L64.7326 10.6306C64.7326 10.2242 64.7733 9.85074 64.8545 9.51018C64.9358 9.16574 65.0538 8.86581 65.2086 8.61039C65.3673 8.35496 65.5608 8.15759 65.7892 8.01827C66.0175 7.87894 66.2787 7.80928 66.5728 7.80928C66.6657 7.80928 66.7605 7.81702 66.8573 7.8325C66.954 7.84411 67.0334 7.86153 67.0953 7.88475ZM70.6596 14.3226C70.172 14.3226 69.7347 14.2452 69.3477 14.0904C68.9607 13.9317 68.6317 13.7131 68.3608 13.4344C68.0938 13.1558 67.8887 12.8326 67.7455 12.465C67.6023 12.0935 67.5307 11.6987 67.5307 11.2807V11.0485C67.5307 10.5725 67.5984 10.1371 67.7339 9.74238C67.8693 9.34764 68.0628 9.00513 68.3144 8.71488C68.5698 8.42462 68.8794 8.20209 69.2432 8.04729C69.607 7.88862 70.0172 7.80928 70.4739 7.80928C70.9189 7.80928 71.3137 7.88281 71.6581 8.02988C72.0026 8.17694 72.2909 8.38592 72.5231 8.65683C72.7592 8.92773 72.9372 9.25282 73.0572 9.63209C73.1771 10.0075 73.2371 10.4255 73.2371 10.886V11.5826H68.2447V10.468H71.5943V10.3403C71.5943 10.1081 71.5517 9.90106 71.4666 9.71916C71.3853 9.5334 71.2614 9.38634 71.095 9.27797C70.9286 9.16961 70.7158 9.11543 70.4565 9.11543C70.2359 9.11543 70.0462 9.16381 69.8876 9.26056C69.7289 9.35731 69.5992 9.49276 69.4986 9.66692C69.4019 9.84107 69.3283 10.0462 69.278 10.2823C69.2316 10.5145 69.2084 10.7699 69.2084 11.0485V11.2807C69.2084 11.5323 69.2432 11.7645 69.3129 11.9774C69.3864 12.1902 69.4889 12.374 69.6205 12.5288C69.756 12.6836 69.9185 12.8036 70.1082 12.8888C70.3017 12.9739 70.5203 13.0165 70.7641 13.0165C71.066 13.0165 71.3466 12.9584 71.6059 12.8423C71.869 12.7223 72.0954 12.5424 72.2851 12.3024L73.0978 13.1848C72.9662 13.3744 72.7862 13.5563 72.5579 13.7305C72.3334 13.9046 72.0625 14.0478 71.7452 14.1601C71.4279 14.2684 71.066 14.3226 70.6596 14.3226ZM75.861 9.29539V14.2065H74.1891V7.92538H75.7623L75.861 9.29539ZM77.7535 7.88475L77.7245 9.43471C77.6432 9.4231 77.5445 9.41343 77.4284 9.40569C77.3162 9.39408 77.2136 9.38827 77.1207 9.38827C76.8847 9.38827 76.6795 9.41923 76.5054 9.48115C76.3351 9.5392 76.1919 9.62628 76.0758 9.74238C75.9636 9.85848 75.8784 9.99974 75.8204 10.1662C75.7662 10.3326 75.7352 10.5222 75.7275 10.7351L75.3908 10.6306C75.3908 10.2242 75.4314 9.85074 75.5127 9.51018C75.594 9.16574 75.712 8.86581 75.8668 8.61039C76.0255 8.35496 76.219 8.15759 76.4473 8.01827C76.6757 7.87894 76.9369 7.80928 77.231 7.80928C77.3239 7.80928 77.4187 7.81702 77.5155 7.8325C77.6122 7.84411 77.6916 7.86153 77.7535 7.88475Z" fill="#f7dd43"/>
</svg>
