<svg width="90" height="19" viewBox="0 0 90 19" fill="none" xmlns="http://www.w3.org/2000/svg">
<path d="M89.0418 1.03325C88.9164 0.888459 88.7183 0.822646 88.5005 0.868715L72.9516 5.02807C72.7701 5.08402 72.6315 5.22551 72.582 5.40979C72.5358 5.59077 72.5919 5.78492 72.7239 5.91654L74.9551 8.14101L71.6578 9.02619C71.4763 9.07884 71.3377 9.22363 71.2915 9.40791C71.2453 9.58889 71.3014 9.78304 71.4334 9.91466L80.0808 18.5295C80.1831 18.6315 80.3218 18.6875 80.4604 18.6875C80.5033 18.6875 80.5495 18.6809 80.5924 18.671C80.7739 18.625 80.9192 18.4835 80.9786 18.2893L81.8532 15.0184L84.0976 17.2594C84.1999 17.3581 84.3352 17.414 84.4738 17.414C84.5168 17.414 84.563 17.4074 84.6059 17.3976C84.7907 17.3515 84.9326 17.2133 84.992 17.0191L89.154 1.52684C89.2035 1.35573 89.1606 1.16816 89.0418 1.03325V1.03325ZM80.2788 17.4798L72.4863 9.71722L75.6779 8.86166L81.1304 14.2978L80.2788 17.4798V17.4798ZM84.2956 16.2064L82.1173 14.0345L84.1339 6.5286C84.1933 6.34104 84.1405 6.13702 84.0019 5.99881C83.8632 5.8606 83.6619 5.80795 83.4837 5.8606L75.942 7.87776L73.7768 5.71911L88.144 1.87565L84.2956 16.2064Z" fill="#047c3f"/>
<path d="M4.57635 4.8092L4.57635 13.3405H2.8244L2.8244 4.8092H4.57635ZM7.20135 4.8092V6.18616H0.240416L0.240416 4.8092H7.20135ZM9.37518 8.38342V13.3405H7.68768L7.68768 7.00061L9.27557 7.00061L9.37518 8.38342ZM11.2853 6.95959L11.256 8.52405C11.174 8.51233 11.0744 8.50256 10.9572 8.49475C10.8439 8.48303 10.7404 8.47717 10.6467 8.47717C10.4084 8.47717 10.2014 8.50842 10.0256 8.57092C9.8537 8.62952 9.70917 8.71741 9.59198 8.83459C9.4787 8.95178 9.39276 9.09436 9.33417 9.26233C9.27948 9.4303 9.24823 9.6217 9.24042 9.83655L8.90057 9.73108C8.90057 9.32092 8.94159 8.94397 9.02362 8.60022C9.10565 8.25256 9.22479 7.94983 9.38104 7.69202C9.5412 7.4342 9.73651 7.23499 9.96698 7.09436C10.1974 6.95374 10.4611 6.88342 10.758 6.88342C10.8517 6.88342 10.9474 6.89124 11.0451 6.90686C11.1428 6.91858 11.2228 6.93616 11.2853 6.95959ZM13.8635 7.00061V13.3405H12.1701V7.00061H13.8635ZM12.0646 5.34827C12.0646 5.10217 12.1506 4.89905 12.3224 4.73889C12.4943 4.57874 12.7248 4.49866 13.0139 4.49866C13.299 4.49866 13.5275 4.57874 13.6994 4.73889C13.8752 4.89905 13.9631 5.10217 13.9631 5.34827C13.9631 5.59436 13.8752 5.79749 13.6994 5.95764C13.5275 6.1178 13.299 6.19788 13.0139 6.19788C12.7248 6.19788 12.4943 6.1178 12.3224 5.95764C12.1506 5.79749 12.0646 5.59436 12.0646 5.34827ZM17.0392 4.34045V13.3405L15.3459 13.3405V4.34045H17.0392ZM20.0803 4.34045V13.3405H18.3928V4.34045H20.0803ZM19.84 9.94788H19.3771C19.381 9.50647 19.4396 9.10022 19.5529 8.72913C19.6662 8.35413 19.8283 8.02991 20.0392 7.75647C20.2502 7.47913 20.5021 7.26428 20.7951 7.11194C21.092 6.95959 21.4201 6.88342 21.7795 6.88342C22.092 6.88342 22.3752 6.92834 22.6291 7.01819C22.8869 7.10413 23.1076 7.24475 23.2912 7.44006C23.4787 7.63147 23.6232 7.88342 23.7248 8.19592C23.8264 8.50842 23.8771 8.88733 23.8771 9.33264V13.3405H22.1779V9.32092C22.1779 9.03967 22.1369 8.81897 22.0549 8.65881C21.9767 8.49475 21.8615 8.37952 21.7092 8.31311C21.5607 8.2428 21.3771 8.20764 21.1584 8.20764C20.9162 8.20764 20.7092 8.25256 20.5373 8.34241C20.3693 8.43225 20.2346 8.55725 20.133 8.71741C20.0314 8.87366 19.9572 9.05725 19.9103 9.26819C19.8635 9.47913 19.84 9.70569 19.84 9.94788ZM28.5822 11.9108V9.08655C28.5822 8.88342 28.549 8.70959 28.4826 8.56506C28.4162 8.41663 28.3127 8.30139 28.1721 8.21936C28.0353 8.13733 27.8576 8.09631 27.6389 8.09631C27.4514 8.09631 27.2892 8.12952 27.1525 8.19592C27.0158 8.25842 26.9103 8.35022 26.8361 8.47131C26.7619 8.5885 26.7248 8.72717 26.7248 8.88733H25.0373C25.0373 8.6178 25.0998 8.36194 25.2248 8.11975C25.3498 7.87756 25.5314 7.66467 25.7697 7.48108C26.008 7.29358 26.2912 7.14709 26.6193 7.04163C26.9514 6.93616 27.3224 6.88342 27.7326 6.88342C28.2248 6.88342 28.6623 6.96545 29.0451 7.12952C29.4279 7.29358 29.7287 7.53967 29.9474 7.8678C30.1701 8.19592 30.2814 8.60608 30.2814 9.09827V11.8112C30.2814 12.1588 30.3029 12.444 30.3459 12.6666C30.3889 12.8854 30.4514 13.0768 30.5334 13.2408V13.3405H28.8283C28.7463 13.1686 28.6838 12.9537 28.6408 12.6959C28.6017 12.4342 28.5822 12.1725 28.5822 11.9108ZM28.8049 9.47913L28.8166 10.4342H27.8732C27.6506 10.4342 27.4572 10.4596 27.2931 10.5104C27.1291 10.5612 26.9943 10.6334 26.8889 10.7272C26.7834 10.817 26.7053 10.9225 26.6545 11.0436C26.6076 11.1647 26.5842 11.2975 26.5842 11.442C26.5842 11.5865 26.6174 11.7174 26.6838 11.8346C26.7502 11.9479 26.8459 12.0377 26.9709 12.1041C27.0959 12.1666 27.2424 12.1979 27.4103 12.1979C27.6642 12.1979 27.8849 12.1471 28.0724 12.0455C28.2599 11.944 28.4045 11.819 28.506 11.6705C28.6115 11.5221 28.6662 11.3815 28.6701 11.2487L29.1154 11.9635C29.0529 12.1237 28.967 12.2897 28.8576 12.4615C28.7521 12.6334 28.6174 12.7955 28.4533 12.9479C28.2892 13.0963 28.092 13.2194 27.8615 13.317C27.631 13.4108 27.3576 13.4576 27.0412 13.4576C26.6389 13.4576 26.2736 13.3776 25.9455 13.2174C25.6213 13.0533 25.3635 12.8287 25.1721 12.5436C24.9846 12.2545 24.8908 11.9264 24.8908 11.5592C24.8908 11.2272 24.9533 10.9323 25.0783 10.6744C25.2033 10.4166 25.3869 10.1998 25.6291 10.024C25.8752 9.84436 26.1818 9.70959 26.549 9.61975C26.9162 9.526 27.342 9.47913 27.8264 9.47913H28.8049ZM36.5451 4.8092V13.3405H34.7931V4.8092H36.5451ZM42.0998 7.00061H43.6291V13.1295C43.6291 13.7076 43.5002 14.1979 43.2424 14.6002C42.9885 15.0065 42.633 15.3131 42.176 15.5201C41.7189 15.7311 41.1877 15.8365 40.5822 15.8365C40.3166 15.8365 40.0353 15.8014 39.7385 15.7311C39.4455 15.6608 39.1642 15.5514 38.8947 15.403C38.6291 15.2545 38.4064 15.067 38.2267 14.8405L38.9709 13.8444C39.1662 14.0709 39.3928 14.2467 39.6506 14.3717C39.9084 14.5006 40.1935 14.5651 40.506 14.5651C40.8107 14.5651 41.0685 14.5084 41.2795 14.3951C41.4904 14.2858 41.6525 14.1237 41.7658 13.9088C41.8791 13.6979 41.9357 13.442 41.9357 13.1412V8.46545L42.0998 7.00061ZM37.8342 10.2467V10.1237C37.8342 9.63928 37.8928 9.19983 38.0099 8.8053C38.131 8.40686 38.301 8.06506 38.5197 7.77991C38.7424 7.49475 39.0119 7.27405 39.3283 7.1178C39.6447 6.96155 40.0021 6.88342 40.4006 6.88342C40.8224 6.88342 41.176 6.96155 41.4611 7.1178C41.7463 7.27405 41.9806 7.4967 42.1642 7.78577C42.3478 8.07092 42.4904 8.40881 42.592 8.79944C42.6974 9.18616 42.7795 9.60999 42.8381 10.0709V10.3405C42.7795 10.7819 42.6916 11.192 42.5744 11.5709C42.4572 11.9498 42.3029 12.2819 42.1115 12.567C41.9201 12.8483 41.6818 13.067 41.3967 13.2233C41.1154 13.3795 40.7795 13.4576 40.3889 13.4576C39.9982 13.4576 39.6447 13.3776 39.3283 13.2174C39.0158 13.0573 38.7482 12.8326 38.5256 12.5436C38.3029 12.2545 38.131 11.9147 38.0099 11.524C37.8928 11.1334 37.8342 10.7076 37.8342 10.2467ZM39.5217 10.1237V10.2467C39.5217 10.5084 39.5471 10.7526 39.5978 10.9791C39.6486 11.2057 39.7267 11.4069 39.8322 11.5826C39.9416 11.7545 40.0764 11.8893 40.2365 11.9869C40.4006 12.0807 40.5939 12.1276 40.8166 12.1276C41.1252 12.1276 41.3771 12.0631 41.5724 11.9342C41.7678 11.8014 41.9142 11.6198 42.0119 11.3893C42.1096 11.1588 42.1662 10.8932 42.1818 10.5924V9.82483C42.174 9.57874 42.1408 9.35803 42.0822 9.16272C42.0236 8.9635 41.9416 8.79358 41.8361 8.65295C41.7306 8.51233 41.5939 8.40295 41.426 8.32483C41.258 8.2467 41.0588 8.20764 40.8283 8.20764C40.6056 8.20764 40.4123 8.25842 40.2482 8.35999C40.0881 8.45764 39.9533 8.59241 39.8439 8.76428C39.7385 8.93616 39.6584 9.13928 39.6037 9.37366C39.549 9.60413 39.5217 9.85413 39.5217 10.1237ZM46.5939 8.35413V13.3405H44.9064V7.00061H46.4885L46.5939 8.35413ZM46.3478 9.94788H45.8908C45.8908 9.47913 45.9514 9.05725 46.0724 8.68225C46.1935 8.30334 46.3635 7.98108 46.5822 7.71545C46.801 7.44592 47.0607 7.24084 47.3615 7.10022C47.6662 6.95569 48.006 6.88342 48.381 6.88342C48.6779 6.88342 48.9494 6.92639 49.1955 7.01233C49.4416 7.09827 49.6525 7.23499 49.8283 7.42249C50.008 7.60999 50.1447 7.85803 50.2385 8.16663C50.3361 8.47522 50.3849 8.85217 50.3849 9.29749V13.3405H48.6857V9.29163C48.6857 9.01038 48.6467 8.79163 48.5685 8.63538C48.4904 8.47913 48.3752 8.36975 48.2228 8.30725C48.0744 8.24084 47.8908 8.20764 47.6721 8.20764C47.4455 8.20764 47.2482 8.25256 47.0803 8.34241C46.9162 8.43225 46.7795 8.55725 46.6701 8.71741C46.5646 8.87366 46.4846 9.05725 46.4299 9.26819C46.3752 9.47913 46.3478 9.70569 46.3478 9.94788ZM53.4494 7.00061V13.3405H51.756V7.00061H53.4494ZM51.6506 5.34827C51.6506 5.10217 51.7365 4.89905 51.9084 4.73889C52.0803 4.57874 52.3107 4.49866 52.5998 4.49866C52.8849 4.49866 53.1135 4.57874 53.2853 4.73889C53.4611 4.89905 53.549 5.10217 53.549 5.34827C53.549 5.59436 53.4611 5.79749 53.2853 5.95764C53.1135 6.1178 52.8849 6.19788 52.5998 6.19788C52.3107 6.19788 52.0803 6.1178 51.9084 5.95764C51.7365 5.79749 51.6506 5.59436 51.6506 5.34827ZM57.9494 7.00061V8.19592H54.258V7.00061L57.9494 7.00061ZM55.1721 5.43616H56.8596V11.4303C56.8596 11.6139 56.883 11.7545 56.9299 11.8522C56.9806 11.9498 57.0549 12.0182 57.1525 12.0573C57.2502 12.0924 57.3732 12.11 57.5217 12.11C57.6271 12.11 57.7209 12.1061 57.8029 12.0983C57.8889 12.0865 57.9611 12.0748 58.0197 12.0631L58.0256 13.3053C57.881 13.3522 57.7248 13.3893 57.5568 13.4166C57.3889 13.444 57.2033 13.4576 57.0002 13.4576C56.6291 13.4576 56.3049 13.3971 56.0275 13.276C55.7541 13.151 55.5431 12.9518 55.3947 12.6783C55.2463 12.4049 55.1721 12.0455 55.1721 11.6002V5.43616ZM61.8283 13.4576C61.3361 13.4576 60.8947 13.3795 60.5041 13.2233C60.1135 13.0631 59.7814 12.8424 59.508 12.5612C59.2385 12.2799 59.0314 11.9537 58.8869 11.5826C58.7424 11.2076 58.6701 10.8092 58.6701 10.3873V10.153C58.6701 9.67249 58.7385 9.23303 58.8752 8.83459C59.0119 8.43616 59.2072 8.09045 59.4611 7.79749C59.7189 7.50452 60.0314 7.27991 60.3986 7.12366C60.7658 6.9635 61.1799 6.88342 61.6408 6.88342C62.09 6.88342 62.4885 6.95764 62.8361 7.10608C63.1838 7.25452 63.4748 7.46545 63.7092 7.73889C63.9474 8.01233 64.1271 8.34045 64.2482 8.72327C64.3693 9.10217 64.4299 9.52405 64.4299 9.98889V10.692H59.3908V9.56702H62.7717V9.43811C62.7717 9.20374 62.7287 8.99475 62.6428 8.81116C62.5607 8.62366 62.4357 8.47522 62.2678 8.36584C62.0998 8.25647 61.8849 8.20178 61.6232 8.20178C61.4006 8.20178 61.2092 8.25061 61.049 8.34827C60.8889 8.44592 60.758 8.58264 60.6564 8.75842C60.5588 8.9342 60.4846 9.14124 60.4338 9.37952C60.3869 9.61389 60.3635 9.8717 60.3635 10.153V10.3873C60.3635 10.6412 60.3986 10.8756 60.4689 11.0905C60.5431 11.3053 60.6467 11.4908 60.7795 11.6471C60.9162 11.8033 61.0803 11.9244 61.2717 12.0104C61.467 12.0963 61.6877 12.1393 61.9338 12.1393C62.2385 12.1393 62.5217 12.0807 62.7834 11.9635C63.049 11.8424 63.2775 11.6608 63.4689 11.4186L64.2892 12.3092C64.1564 12.5006 63.9748 12.6842 63.7443 12.86C63.5178 13.0358 63.2443 13.1803 62.924 13.2936C62.6037 13.403 62.2385 13.4576 61.8283 13.4576Z" fill="#047c3f"/>
</svg>
